<svg width="40" height="40" fill="red" xmlns="http://www.w3.org/2000/svg" xmlns:xlink="http://www.w3.org/1999/xlink">
 <!-- Created with SVG-edit - https://github.com/SVG-Edit/svgedit-->
 <defs>
  <symbol viewBox="0 0 60.051 60.051" id="svg_2" xmlns:xlink="http://www.w3.org/1999/xlink">
   <g id="svg_1">
    <path id="svg_5" d="m56.963,32.026l-1.823,0c-1.703,0 -3.088,1.385 -3.088,3.088l0,3.912l-10,0l0,-6.219c3.646,-1.177 5.957,-6.052 5.957,-12.781c0,-7.235 -2.669,-12.333 -6.8,-12.988c-0.052,-0.008 -0.104,-0.012 -0.157,-0.012l-40,0c-0.481,0 -0.893,0.343 -0.982,0.816l-0.001,0c-0.02,0.107 -0.472,2.648 1.243,4.714c1.138,1.371 2.92,2.169 5.292,2.395c-0.357,1.59 -0.552,3.31 -0.552,5.075c0,7.29 3.075,13 7,13l21,0l0,12.967c0,1.672 1.36,3.033 3.033,3.033l1.935,0c1.308,0 2.415,-0.837 2.84,-2l10.193,0l0,2.912c0,1.703 1.385,3.088 3.088,3.088l1.823,0c1.703,0 3.088,-1.385 3.088,-3.088l0,-14.824c-0.001,-1.703 -1.386,-3.088 -3.089,-3.088zm-15.996,-23c2.397,0.436 4.788,3.683 5.018,10l-20.52,0l-3.707,-3.707c-0.188,-0.188 -0.442,-0.293 -0.707,-0.293l-2,0l-0.349,0l-3.985,0l-1.07,0c-0.009,-0.014 -0.02,-0.028 -0.029,-0.042c-0.102,-0.164 -0.216,-0.329 -0.34,-0.495c-0.067,-0.09 -0.142,-0.18 -0.215,-0.27c-0.033,-0.041 -0.064,-0.082 -0.098,-0.123c-0.04,-0.047 -0.081,-0.094 -0.123,-0.141c-0.044,-0.05 -0.08,-0.099 -0.125,-0.149c-0.017,-0.019 -0.039,-0.032 -0.058,-0.05c-0.112,-0.121 -0.229,-0.242 -0.352,-0.364c-0.079,-0.078 -0.159,-0.155 -0.241,-0.232c-0.199,-0.186 -0.409,-0.373 -0.633,-0.56c-0.18,-0.151 -0.368,-0.298 -0.558,-0.445c-0.087,-0.067 -0.173,-0.134 -0.263,-0.201c-1.513,-1.131 -3.265,-2.134 -4.846,-2.928l35.201,0zm-26.916,9.666c0,2.09 -0.6,3.471 -1,4.073c-0.4,-0.603 -1,-1.983 -1,-4.073c0,-0.806 0.087,-1.489 0.21,-2.053c0.004,0.006 0.012,0.008 0.017,0.013c0.084,0.103 0.186,0.184 0.302,0.246c0.025,0.013 0.049,0.023 0.076,0.034c0.124,0.054 0.255,0.092 0.396,0.092l0.862,0c0.091,0.534 0.137,1.092 0.137,1.668zm-11.187,-7.396c-0.482,-0.574 -0.696,-1.218 -0.791,-1.773c1.508,0.648 3.509,1.606 5.354,2.716c-0.098,0.246 -0.188,0.501 -0.276,0.759c-2.004,-0.128 -3.443,-0.699 -4.287,-1.702zm5.187,8.73c0,-2.422 0.382,-4.745 1.086,-6.671c0.02,0.014 0.04,0.028 0.06,0.042c0.617,0.445 1.133,0.879 1.576,1.303c-0.351,0.861 -0.723,2.197 -0.723,3.992c0,3.374 1.402,6.333 3,6.333s3,-2.959 3,-6.333c0,-0.571 -0.048,-1.125 -0.124,-1.667l1.92,0c0.135,0.988 0.204,1.994 0.204,3c0,6.195 -2.688,11 -5,11c-2.363,0.001 -4.999,-4.517 -4.999,-10.999zm8.673,11c0.028,-0.033 0.053,-0.075 0.081,-0.109c0.191,-0.231 0.376,-0.479 0.554,-0.742c0.03,-0.044 0.061,-0.082 0.091,-0.127c0.205,-0.313 0.399,-0.65 0.585,-1.003c0.05,-0.094 0.095,-0.195 0.143,-0.292c0.134,-0.271 0.262,-0.55 0.384,-0.84c0.052,-0.124 0.103,-0.249 0.153,-0.376c0.119,-0.304 0.229,-0.618 0.334,-0.94c0.034,-0.106 0.072,-0.208 0.104,-0.315c0.131,-0.43 0.249,-0.872 0.354,-1.328c0.021,-0.091 0.036,-0.185 0.056,-0.276c0.079,-0.371 0.15,-0.749 0.211,-1.135c0.024,-0.155 0.045,-0.311 0.067,-0.467c0.047,-0.349 0.086,-0.703 0.117,-1.061c0.013,-0.152 0.029,-0.303 0.039,-0.457c0.034,-0.504 0.056,-1.014 0.056,-1.532l0,-3l0.586,0l3.707,3.707c0.188,0.188 0.442,0.293 0.707,0.293l20.934,0c-0.23,6.317 -2.621,9.564 -5.018,10l-6.916,0l-17.329,0zm22.295,16l-1.935,0c-0.569,0 -1.033,-0.463 -1.033,-1.033l0,-12.967l4,0l0,6l0,6.967c0,0.569 -0.463,1.033 -1.032,1.033zm3.032,-2l0,-4l10,0l0,4l-10,0zm16,4.911c0,0.6 -0.488,1.088 -1.088,1.088l-1.823,0c-0.6,0 -1.088,-0.488 -1.088,-1.088l0,-2.912l0,-8l0,-3.912c0,-0.6 0.488,-1.088 1.088,-1.088l1.823,0c0.6,0 1.088,0.488 1.088,1.088l0,14.824z"/>
    <circle id="svg_6" r="1" cy="27.026" cx="32.051"/>
    <circle id="svg_7" r="1" cy="27.026" cx="28.051"/>
    <circle id="svg_8" r="1" cy="27.026" cx="24.051"/>
   </g>
   <g id="svg_9"/>
   <g id="svg_10"/>
   <g id="svg_11"/>
   <g id="svg_12"/>
   <g id="svg_13"/>
   <g id="svg_14"/>
   <g id="svg_15"/>
   <g id="svg_16"/>
   <g id="svg_17"/>
   <g id="svg_18"/>
   <g id="svg_19"/>
   <g id="svg_20"/>
   <g id="svg_21"/>
   <g id="svg_22"/>
   <g id="svg_23"/>
  </symbol>
 </defs>
 <g>
  <title>background</title>
  <rect fill="none" id="canvas_background" height="42" width="42" y="-1" x="-1"/>
 </g>
 <g class="layer">
  <title>Layer 1</title>
  <use xlink:href="#svg_2" id="svg_3"/>
  <g id="svg_4"/>
 </g>
</svg>